<svg width="671" height="3839" viewBox="0 0 671 3839" fill="none" xmlns="http://www.w3.org/2000/svg">
<path d="M347.956 1.61328C268.263 1.61328 164.488 48.9857 144.147 143.827C126.642 225.45 158.025 292.145 218.701 355.346C269.055 407.797 641.659 356.623 592.367 505.915C573.038 564.454 539.009 601.106 494.307 643.591C419.964 714.246 310.38 657.019 218.701 720.939C-12.314 882.004 113.67 1030.99 240.895 1048.89C314.184 1059.2 544.094 1035.89 546.949 1163.36C549.521 1278.22 338.96 1254.12 240.897 1282.99C139.581 1312.83 53.7613 1355.38 22.0661 1464.5C5.88691 1520.2 68.5147 1642.4 240.897 1664.06C371.645 1680.48 646.359 1637.52 662.559 1793.48C674.353 1907.04 440.958 1885.2 301.798 1950.23C191.412 2001.82 75.44 2033.4 34.9697 2148.24C-19.5586 2302.99 204.238 2326.6 347.953 2353.87C465.405 2376.16 625.187 2322.35 646.559 2469.49C671.986 2644.56 331.733 2586.55 242.962 2630.89C143.16 2680.75 52.5232 2749.48 71.6085 2859.32C108.254 3070.22 700.715 2976.37 668.752 3150.15C646.559 3270.8 95.3494 3205.32 12.2594 3424.98C-6.78892 3475.34 -0.238577 3556.28 21.1929 3621.5C87.2612 3790.23 152.757 3830.78 327.087 3794.18" stroke="black" stroke-width="2" stroke-dasharray="12 12"/>
<path d="M144.063 234.589C147.474 234.589 150.238 231.82 150.238 228.404C150.238 224.988 147.474 222.219 144.063 222.219C140.653 222.219 137.888 224.988 137.888 228.404C137.888 231.82 140.653 234.589 144.063 234.589Z" fill="#222222" stroke="#FFCB08" stroke-width="4"/>
<path d="M511.499 633.534C514.909 633.534 517.674 630.765 517.674 627.349C517.674 623.933 514.909 621.164 511.499 621.164C508.088 621.164 505.323 623.933 505.323 627.349C505.323 630.765 508.088 633.534 511.499 633.534Z" fill="#222222" stroke="#FFCB08" stroke-width="4"/>
<path d="M114.215 982.995C117.626 982.995 120.391 980.226 120.391 976.81C120.391 973.394 117.626 970.625 114.215 970.625C110.805 970.625 108.04 973.394 108.04 976.81C108.04 980.226 110.805 982.995 114.215 982.995Z" fill="#222222" stroke="#FFCB08" stroke-width="4"/>
<path d="M511.499 1233.5C514.909 1233.5 517.674 1230.73 517.674 1227.31C517.674 1223.89 514.909 1221.12 511.499 1221.12C508.088 1221.12 505.323 1223.89 505.323 1227.31C505.323 1230.73 508.088 1233.5 511.499 1233.5Z" fill="#222222" stroke="#FFCB08" stroke-width="4"/>
<path d="M79.2218 1600.48C82.6323 1600.48 85.3972 1597.71 85.3972 1594.3C85.3972 1590.88 82.6323 1588.11 79.2218 1588.11C75.8112 1588.11 73.0464 1590.88 73.0464 1594.3C73.0464 1597.71 75.8112 1600.48 79.2218 1600.48Z" fill="#222222" stroke="#FFCB08" stroke-width="4"/>
<path d="M499.148 1904.59C502.558 1904.59 505.323 1901.82 505.323 1898.4C505.323 1894.99 502.558 1892.22 499.148 1892.22C495.737 1892.22 492.972 1894.99 492.972 1898.4C492.972 1901.82 495.737 1904.59 499.148 1904.59Z" fill="#222222" stroke="#FFCB08" stroke-width="4"/>
<path d="M47.3155 2255.09C50.7261 2255.09 53.4909 2252.32 53.4909 2248.9C53.4909 2245.48 50.7261 2242.71 47.3155 2242.71C43.905 2242.71 41.1401 2245.48 41.1401 2248.9C41.1401 2252.32 43.905 2255.09 47.3155 2255.09Z" fill="#222222" stroke="#FFCB08" stroke-width="4"/>
<path d="M515.615 2599.39C519.026 2599.39 521.791 2596.62 521.791 2593.21C521.791 2589.79 519.026 2587.02 515.615 2587.02C512.205 2587.02 509.44 2589.79 509.44 2593.21C509.44 2596.62 512.205 2599.39 515.615 2599.39Z" fill="#222222" stroke="#FFCB08" stroke-width="4"/>
<path d="M154.356 2961.23C157.766 2961.23 160.531 2958.46 160.531 2955.04C160.531 2951.63 157.766 2948.86 154.356 2948.86C150.945 2948.86 148.18 2951.63 148.18 2955.04C148.18 2958.46 150.945 2961.23 154.356 2961.23Z" fill="#222222" stroke="#FFCB08" stroke-width="4"/>
<path d="M515.615 3230.28C519.026 3230.28 521.791 3227.52 521.791 3224.1C521.791 3220.68 519.026 3217.91 515.615 3217.91C512.205 3217.91 509.44 3220.68 509.44 3224.1C509.44 3227.52 512.205 3230.28 515.615 3230.28Z" fill="#222222" stroke="#FFCB08" stroke-width="4"/>
</svg>
