<svg width="56" height="46" viewBox="0 0 56 46" fill="none" xmlns="http://www.w3.org/2000/svg">
<g clip-path="url(#clip0_120_3712)">
<g clip-path="url(#clip1_120_3712)">
<g clip-path="url(#clip2_120_3712)">
<path d="M43.8187 24.3526C25.2441 40.5236 5.45978 51.0673 0.932207 42.0175C-3.22313 33.7118 14.1486 19.8072 17.2385 16.85C17.8872 16.2291 17.6334 15.8873 16.783 16.1896C14.5563 16.9811 10.7671 18.4244 0.22276 24.9444C0.12976 25.0019 0.00610352 24.9373 0.00610352 24.8279C0.00610352 24.7843 0.0264545 24.7433 0.0611597 24.7169C18.2937 10.8628 40.1938 0.666115 20.7159 20.4366C6.56019 34.805 45.4364 13.61 43.8187 6.13776C43.3926 4.16914 38.9374 2.73115 30.5772 7.23409C30.4811 7.28586 30.3609 7.21821 30.3609 7.109C30.3609 7.05892 30.3876 7.01206 30.4303 6.98598C33.2982 5.23846 35.2279 4.28434 38.1111 3.01555C61.6844 -7.35866 58.7781 11.3291 43.8187 24.3526Z" fill="white"/>
</g>
</g>
</g>
<defs>
<clipPath id="clip0_120_3712">
<rect width="55.43" height="45.35" fill="white"/>
</clipPath>
<clipPath id="clip1_120_3712">
<rect width="55.43" height="45.35" fill="white"/>
</clipPath>
<clipPath id="clip2_120_3712">
<rect width="55.4278" height="45.35" fill="white" transform="translate(0.00610352)"/>
</clipPath>
</defs>
</svg>
