<svg xmlns="http://www.w3.org/2000/svg" width="448" height="496" viewBox="0 50 448 396"
 fill="none"><script xmlns="" id="eppiocemhmnlbhjplcgkofciiegomcon"/><script xmlns=""/><script xmlns=""/>
<path fill-rule="evenodd" clip-rule="evenodd" d="M448 0H0V496H448V0ZM233.312 346.938C244.641 355.727 258.312 360.121 274.328 360.121C290.441 360.121 304.113 355.727 315.344 346.938C326.672 338.148 335.314 325.453 341.271 308.852C347.229 292.152 350.207 271.938 350.207 248.207C350.207 224.574 347.18 204.408 341.125 187.709C335.168 170.912 326.525 158.119 315.197 149.33C303.869 140.443 290.246 136 274.328 136C258.41 136 244.787 140.443 233.459 149.33C222.131 158.119 213.439 170.912 207.385 187.709C201.428 204.408 198.449 224.574 198.449 248.207C198.449 271.938 201.428 292.152 207.385 308.852C213.342 325.453 221.984 338.148 233.312 346.938ZM301.867 326.576C294.348 333.51 285.168 336.977 274.328 336.977C263.586 336.977 254.406 333.51 246.789 326.576C239.27 319.545 233.508 309.389 229.504 296.107C225.598 282.826 223.645 266.859 223.645 248.207C223.645 220.082 228.039 198.207 236.828 182.582C245.617 166.957 258.117 159.145 274.328 159.145C285.168 159.145 294.348 162.66 301.867 169.691C309.387 176.723 315.1 186.879 319.006 200.16C323.01 213.441 325.012 229.457 325.012 248.207C325.012 266.859 323.01 282.826 319.006 296.107C315.1 309.389 309.387 319.545 301.867 326.576ZM177.273 357.191V138.93H151.492L97 175.258V202.211L150.027 166.762H151.492V357.191H177.273Z" fill="white"/>
</svg>